# xmcd
#
# Track frame offsets: 
#        150
#        12082
#        32210
#        47106
#        60639
#        79472
#        93194
#        117542
#        129359
#        143419
#        158873
#        178054
#
# Disc length: 2735 seconds
#
# Revision: 0
# Processed by: cddbd v1.5.2PL0 Copyright (c) Steve Scherf et al.
# Submitted via: ExactAudioCopy v1.3
#
DISCID=9b0aad0c
DTITLE=The Black Market Experience - Tales from My Street
DYEAR=2019
DGENRE=Blues
TTITLE0=On Me
TTITLE1=Man in Black
TTITLE2=Hey Sue!
TTITLE3=The Shame
TTITLE4=Long Journey
TTITLE5=A Matter of Time
TTITLE6=Wait
TTITLE7=Fools
TTITLE8=I Am a Tramp
TTITLE9=In the Jail
TTITLE10=I'm Not Your Man
TTITLE11=The Sound of My Street
EXTD=
EXTT0=
EXTT1=
EXTT2=
EXTT3=
EXTT4=
EXTT5=
EXTT6=
EXTT7=
EXTT8=
EXTT9=
EXTT10=
EXTT11=
PLAYORDER=
